<svg width="57" height="52" viewBox="0 0 57 52" fill="none" xmlns="http://www.w3.org/2000/svg">
<path d="M0 0.88147L31.5857 23.3029L6.92223 25.4587L0 0.88147Z" fill="#65A626"/>
<path d="M0.353027 0L32.6672 21.6313L24.9808 2.33395C11.7977 0.415635 0.353027 0 0.353027 0Z" fill="#CCE70B"/>
<path d="M7.5791 26.2718L33.1945 24.8422L44.7375 32.9493L21.0482 51.0957L10.6403 39.5766L7.5791 26.2718Z" fill="#327F23"/>
<path d="M25.5483 0.616638L34.0213 21.7912L47.2311 30.1815L50.5247 9.17597L40.2329 2.59433L25.5483 0.616638Z" fill="#CCE70B"/>
<path d="M22.3218 52L41.0283 51.63L53.0674 40.2389L45.6402 34.0592L22.3218 52Z" fill="#28471A"/>
<path d="M48.6792 31.5928L55.7668 37.9598L57.0002 27.8384L50.3818 12.3183L48.6792 31.5928Z" fill="#E1F114"/>
</svg>
